<svg id="图层_1" data-name="图层 1" xmlns="http://www.w3.org/2000/svg" viewBox="0 0 4323.31 4323.31"><defs><style>.cls-1,.cls-2{fill:#c13432;}.cls-2{stroke:#e6e6e6;}.cls-2,.cls-3,.cls-4,.cls-5,.cls-9{stroke-miterlimit:10;}.cls-3,.cls-4{stroke:#000;}.cls-4{stroke-width:7px;}.cls-5{font-size:250px;stroke:#3271ae;font-family:HGXK_CNKI;}.cls-5,.cls-6{fill:#fff;}.cls-6{font-size:175px;font-family:HGXBS_CNKI;}.cls-7{fill:#1e2732;}.cls-8,.cls-9{fill:none;}.cls-9{stroke:#c13432;stroke-width:50px;}</style></defs><path class="cls-1" d="M2606,1367q-43.83-31.8-87.65-63.6c-21.05-15.34-21-15.43-41.83-.39q-39.13,28.34-78.2,56.75c-3.14,2.28-6.45,4.34-13,8.68,2-7.14,3-11,4.22-14.84,11.21-34.81,22.08-69.75,34-104.34,3.14-9.13,1.67-14.08-6.12-19.57-29.56-20.84-58.68-42.32-87.94-63.59-3.36-2.44-6.53-5.12-8.75-10.5,4.64-.21,9.28-.6,13.91-.6,35.76,0,71.53-.27,107.29.13,8.79.1,13.1-2.2,15.87-11.3,10.53-34.56,22.15-68.8,33.4-103.14,1.34-4.09,2.91-8.1,5.75-16,2.83,7.34,4.61,11.4,6,15.6,10.8,33.09,22,66.07,32,99.4,3.45,11.52,8.35,16,21,15.6,35.29-1,70.63-.37,105.95-.32,4.23,0,8.45.42,16.76.86-13.41,9.93-23.71,17.69-34.15,25.27-22.5,16.33-44.84,32.89-67.73,48.65-8.05,5.54-9,10.64-5.95,19.7,13,38.29,25.08,76.9,37.49,115.4Z" transform="translate(-337.99 -338.11)"/><path class="cls-2" d="M1607,3587.41l.78,61.24c17.57-21.74,40.44-39.55,40-71.09-.07-5.55,7.77-13.41,13.83-16.41,16.78-8.29,34.95-13.77,51.75-22.05,7-3.47,13.59-10.27,17.57-17.16,12.22-21.21,22.91-43.28,34.68-64.76,1.63-3,6-4.43,9-6.6,2.4,3.59,5.19,7,7.12,10.79,8.08,15.93,14.2,33.17,24.28,47.67s8.4,30-9,33.8c-31.14,6.74-58.57,20.27-85.38,36.89-8.28,5.14-21.16,2.38-31.64,4.63-5,1.07-11,4.32-13.52,8.43-29.25,47.17-57.71,94.83-87,142-5.61,9.06-15.39,5.34-21.42-8.08-1.59-3.55-2.47-8.49-1.33-12,11.65-36.19,23.54-72.31,36-108.24,2.44-7,7.41-13.21,11.21-19.78Zm175.91-94c-4.22,8.5-8.87,17.88-13.32,26.87C1784.64,3518.42,1788,3511.4,1782.91,3493.37Z" transform="translate(-337.99 -338.11)"/><path class="cls-2" d="M1738,3639.88c9.61-10.93,21.45-20,27.13-32,6.47-13.63,14.32-17.71,31-13.16-4.65-9.81-8-16.95-11.51-24.31,14.61,1.68,24.9,12.77,30.78,31.77,3.81,12.32-.79,20.94-10.23,28.49-13.65,10.91-13.6,11.56-12,43.16-13.46-2.73-14.76-4.45-21.07-24.82-7.22,19.82-15.72,39.28-21.34,59.54-7,25.1-16.48,48.6-34.48,67.58-16.47,17.37-22.47,15.5-28.66-7.12-1.32-4.8-2.43-9.67-4.73-18.84,18,16.62,24.57,5,29.94-6.85,15.15-33.6,29.76-67.45,44.58-101.21l-4.08-2.36q-20,22.15-40,44.31c-4.64,5.16-6.51,17-17.1,8.67-9.12-7.14-10.53-16.49-2.91-26,5.84-7.33,12.65-14,17.73-21.79,4-6.19,6.08-13.66,9-20.56l-4.21-2.7c-8.66,10.52-17.37,21-26,31.58-3,3.63-5,8.62-8.69,10.9-4.38,2.68-10.14,3.09-15.3,4.49.3-7.06-2.24-17.38,1.43-20.59a247.71,247.71,0,0,1,42-29.13c7.76-4.35,17.74-4.74,26.72-6.92C1736.57,3620.16,1737.14,3628.34,1738,3639.88Z" transform="translate(-337.99 -338.11)"/><path class="cls-2" d="M1759.39,3711.34c7.81,7.38,15.44,15,23.48,22.09s13.65,5.48,16.56-5.34c5.41-20.14,10.69-40.36,17-60.24,10.53-33.26,21.77-66.3,32.8-99.4,2.43-7.3,5.22-14.47,8.91-24.61-24.47,8.9-45.91,21.1-72,9,28.91-11.45,57.36-24.29,86.89-33.8,16.82-5.41,26.94,8.6,20.33,25.17A67.22,67.22,0,0,1,1886,3558c-30.83,43.73-44.73,93.5-53.57,145.43-4,23.51-10.82,46.55-16.55,69.75-2.17,8.82-7.34,10.87-15,5.6-1.28-.88-2.8-1.72-3.61-3q-20.1-31.24-40-62.59Z" transform="translate(-337.99 -338.11)"/><path class="cls-2" d="M1663.61,3492.37c26.89-27.19,10.51-62.61,19.27-95.88,16.92,16.51,21.78,34.59,18.17,54.57C1697.32,3471.75,1683.82,3485.19,1663.61,3492.37Z" transform="translate(-337.99 -338.11)"/><path class="cls-2" d="M2806.33,3622.61c51-6.72,60.58-18.62,56.17-70.88,9.29,14.71,19.51,27.18,25.16,41.45,2.66,6.73-.58,20.94-6.08,24.88-25.16,18-52,33.82-78.42,50-6.47,4-13.88,6.38-26.8,12.17,56.08,49.38,96.75,111.25,174.22,128.39-.18,2.45,1,7.28-.92,9.42-19.95,22.6-73.17,17.61-89.34-7.71-25.3-39.62-50.94-79-79.42-123.13-29.24,61.7-66.87,104.51-125.61,125.75,44.75-28.75,60.46-77.09,86.74-121.28-21.6-4.82-45.62,20.76-60.83-12.39,19.24-7.22,37.6-14.92,56.5-21,17.15-5.49,28.23-16,32.71-33.21,12.49-48.14,24.74-96.34,37.22-144.48,2.73-10.53,5.08-21.34,9.46-31.2,2.45-5.52,8.7-9.37,13.23-14,4.48,5,12.08,9.54,12.83,15,1.95,14.37,4,29.93.51,43.61C2832.74,3536.74,2819.28,3578.74,2806.33,3622.61Z" transform="translate(-337.99 -338.11)"/><path class="cls-2" d="M2315.83,3834.13c2.89.85,5.79,1.64,8.66,2.55,27.27,8.73,38.2,1.75,39.19-27.57,1.26-37,.6-74.08,1.31-111.12.49-26,2.15-51.9,2.68-77.85.17-8.2-1.62-16.43-2.81-27.35-59.71,20.11-109.26,49-146.43,96.59l3.59,5.73c10-7.05,23.9-12,29.15-21.59,12.58-23.1,27.77-21.23,52-9.6-10.82,13.69-19.33,26.37-29.79,37.16-11,11.31-10.64,17,2.51,27.58,8.08,6.49,13.08,22.54,12,33.55-2.06,20.42-9.58,40.3-14.89,60.39-1.39,5.23-3,10.4-10.17,16.77l-10-40.88-30.65,15.38c.9-13.64-1.69-25.33,2.81-32.66,11.81-19.24,24.12-36.95,4.81-59.55-3.22.21-11.88,3.31-14.59.56-19.87-20.17-38.78-5.2-52.76,4.82-11.58,8.31-18.79,25.94-22.8,40.83-5.75,21.42-6.84,44.09-10.75,72.17-23.91-23.65-19.18-44.94-10.05-64.89,23.38-51.11,49.7-100.3,99.7-131.63,8.07-5.05,14-13.52,19.5-23.08-37.7,14-73.34,34.84-116.43,15.3,11.66-5.61,23.37-11.11,35-16.83,15.57-7.69,31.22-15.25,46.55-23.4,29.77-15.82,54.92-33.07,59.24-72.59,2.74-25,18.05-48.68,29.73-78,21.55,33.88,7.3,64,8.71,92.59l7.18,4.08,31.3-34.92c3.15,2.72,15.28,8.57,15.17,14.17-.18,8.35-7.26,18.69-14.43,24.37-20.33,16.11-42.38,30-63.34,45.38-5.84,4.28-10.24,10.54-12.85,18.56,29.09-13.44,57.86-27.61,87.34-40.1,30.64-13,46.54-1.76,38.6,29.94-16.46,65.77-10,131.27-5,197.28,1.4,18.44-2.61,37.6-6.23,56-3.11,15.79-14.72,20.62-28.63,12.7-13.08-7.45-24.89-17.13-37.26-25.82Z" transform="translate(-337.99 -338.11)"/><path class="cls-2" d="M3318.67,3355.27c1.29-1.19,3.7-.49,6.71.41,4.08,1.23,9.09,2.74,13.32,7.54a23.84,23.84,0,0,1,5.42,11.24c2.4,11.64-6.29,20.79-12.27,35.37-5,12.18-11.14,23.87-17.13,36.52,24.3,3.57,42.51,1.73,57.46-18,9.4-12.41,24.38-21.2,38.18-29.38,5.73-3.39,14.92-.95,22.54-1.16,0,6.54,1.57,13.6-.34,19.52-10.25,31.74-21.38,63.21-32.71,96.26,4.52.78,7.49,1.84,10.39,1.69,14.69-.78,17.13,5.66,14.2,19.2-7.18,33.25-28,57.87-49.09,82.57a89.6,89.6,0,0,0-6.95,8.88c-.78,1.19-.44,3.11-.93,7.81,9.6-4.68,17.48-8.82,25.61-12.42,10.87-4.82,21.67-10.14,33-13.37,4.93-1.4,11.2,1.89,16.86,3.05-1.5,4.64-1.93,10.08-4.68,13.8-9.89,13.33-20.57,26.08-30.94,39.05q-2.32-1.72-4.63-3.47l16.76-32.32-5.18-4.43c-10.11,8-20.76,15.51-29.94,24.5-2.21,2.17-.77,9.9,1.13,14.11,11.94,26.53,25.12,52.51,36.57,79.24,6.45,15.06,2.57,20.44-12.79,24.61-21.76,5.91-43.27,4-64.84-1.66,13.89-3.12,28.19-5.07,41.6-9.64,20.67-7,24.1-14.07,16.76-34.1-7.42-20.24-16.53-39.85-26.47-63.46-23.35,22.19-44.14,42-65,61.76-5.84,5.53-11.3,11.89-18.14,15.74-3.35,1.88-9.44-1.12-14.29-1.92,1-4.56.4-10.61,3.15-13.45,22.53-23.31,45.35-46.36,68.83-68.72,7.35-7,10.8-13.26,12.3-24,2.27-16.2,10.38-31.63,16.39-47.24,2.79-7.26,6.47-14.18,8.42-22.24-29.22,23.57-55.23,50.79-89.91,65.62l-3.08-3.16c2.61-3.52,4.79-7.49,7.9-10.48,21.79-21,44-41.56,65.52-62.77,3.58-3.52,4.76-9.46,7-14.28l-4.42-3-13.81,9.53c.6-19,.92-39.08,2.19-59.07.21-3.33,4.62-6.39,7.09-9.57,4.88,5.66,13.64,11.21,13.8,17,.34,11.74-4,23.61-4.17,36.07,20.64-31.17,24.85-67.3,31.71-102.63l-4.38-3c-8.18,8-17.56,15-24.25,24.1-11.24,15.18-29.86,24.14-33.6,46.19-2.12,12.48-2.68,21.7,9.66,32.33-33-6-20.91,32.09-44.66,36.31l13.5-39.38c-18.52,9.19-27.48,26.1-38.57,69.13-24-8.1-31-29-37.55-51.28l33.22,20,3.59-3.17c-6.7-32.87-34.38-51.88-58-79.29,32.13,10.85,51.69,30.88,70.44,52.33l34.58-53.9-5.53-5.37-36.05,23.18-10.6-12.54c7.94-8.38,20.52-16.12,24.72-27.07,17.68-46.1,20.65-66.51,14.94-84.9Q3316.65,3357.16,3318.67,3355.27Z" transform="translate(-337.99 -338.11)"/><path class="cls-1" d="M2613.83,2541.72s27.87,20.65,46.61,53.86c86.07,152.56-348.28,424.1-342.86,429,1.84,1.65,47.13-26.29,247.71-163.48,0,0,97.54-66.79,210.8-162.17,1.89-1.59,4.49-3.79,7.68-6.56,22.13-19.29,49.87-46.52,62.86-64.71,30.76-43.09,21.11-94.74,18-111.17-10.39-55.6-38.43-93.19-48.5-108.95-23.74-37.16-101.18-97-145.57-129.05" transform="translate(-337.99 -338.11)"/><path class="cls-3" d="M2657.69,2270.1c-11.61-7.28-128.75-80.87-164.45-111.53-180.1-154.71,138.15-582.89,99.21-599.26-42.48-17.86-502.44,456.4-335.35,665.42,23.37,29.24,72.75,70.49,126.32,115.23,108.54,90.66,154.53,127.94,216.47,193" transform="translate(-337.99 -338.11)"/><path id="film" class="cls-3" d="M2021.48,1565.46c-7.62-10-175.81,11.53-302.54,87.64-71.9,43.18-104.57,88.39-130.67,125.45-112.71,160.09-74.91,320.36-52.09,418.41,26.71,114.72,43,102.22,165.87,424.82,67.78,178,99,276.75,41,392.47-35.75,71.32-101.3,130.19-110.64,138.6-49.56,44.6-101.76,77.08-142.81,99.26,117.28-20.74,295.37-66.12,365-169.31,8-11.78,12.22-21.66,16.64-31,85.88-182,6.59-454.2-6.37-497.13-32.53-107.78-94.44-292.37-152.33-457.56-27.93-79.72-58.53-156.27-22.44-251.71,9.38-24.81,47-119.26,171-199.44,86.15-55.73,165.82-73.38,160.41-80.48" transform="translate(-337.99 -338.11)"/><path class="cls-3" d="M3360.94,2914.31c24.81-.77,115.09-3.56,122.44-38.78,1.31-6.29-6.94-31.91-23.29-83-.71-2.22-1.23-3.83-1.53-4.76-62.43-193.12-8-523.57-29.53-859.65C3419,1771,3388.68,1556.73,3357.1,1556.7c-31.38,0-64.66,211.7-74,386.15-17.67,330.8,44.07,653.68-19.08,845-.36,1.09-1,3-1.85,5.62-19.68,60.35-25.61,72.59-25.13,82.09a19.13,19.13,0,0,0,.65,4.34C3247,2917.83,3343.38,2914.85,3360.94,2914.31Z" transform="translate(-337.99 -338.11)"/><path class="cls-3" d="M3157.92,2793.2c3.95,2.62,13.43-6.35,33.3-2.71s31.75,8.42,38.45,12.58,20.91,12.34,25.21,16.84,26.91,22.65,30.71,42.08c47.71,6.69,99.33,81.77,29.25,67.92-.48,2.46-2.06,5.41-3.65,8.36,8.71,5.23,32.26,8.68,40,21.56-11-.67-20.26-1.36-27.08-1.9-24.76-2-31.46-3.14-36.89-4.32a117.08,117.08,0,0,1-22.12-6.55,89.85,89.85,0,0,1-27.56-18c-58.47-26.07-66.52-21.17-123.52-74.7-13.13-14.14-4.12-26.67-4.12-26.67C3088,2809.31,3080.17,2760,3157.92,2793.2Z" transform="translate(-337.99 -338.11)"/><path class="cls-3" d="M3351.2,2959.83c-1.11,1.56-13.66-4.08-30.11-8.62a208.79,208.79,0,0,0-27.61-5.65c-9.19-2.77-48.57.46-55.89-28.48-30.67-11.63-17.92-36.28,10.21-34.16a27.39,27.39,0,0,1,10.56-9.3,33,33,0,0,1,8.13-2.9c8.47-1.76,16.12.39,20.35,1.62,15.24,4.45,23.89,14.12,27.48,18,4.89,5.25,12,13.52,10.56,23-.19,1.26-1.46,9.58-8.26,11.55-2,.58-4,.42-7.88.1-4.67-.38-8.31-.67-12.08-2.7a17.8,17.8,0,0,1-7.27-7.26,15,15,0,0,1-2-9.14,8.58,8.58,0,0,0-1.63-7.94c-3.31-3.95-9.26-4.36-11.39-4.51-6.71-.46-13.56,2.34-16.65,6.66-4.44,6.21.74,15.55,6.11,21.07,16.43,16.9,57.44,20.15,72.6,27.09a53.68,53.68,0,0,1,9.74,6.14C3348.64,2956.4,3351.82,2959,3351.2,2959.83Z" transform="translate(-337.99 -338.11)"/><path class="cls-3" d="M3279.61,2902.23" transform="translate(-337.99 -338.11)"/><path class="cls-3" d="M3282.2,2902.54" transform="translate(-337.99 -338.11)"/><path class="cls-3" d="M3285.59,2862a45.76,45.76,0,0,0-9.58,2.89c-8.88,3.62-12.4,7.83-13.7,7.12-1.64-.91,4.09-7.5,5-14.26.94-7-2.86-17.44-23.67-32.48-4.71-3.4-18.24-13.61-36.93-16.54a182.71,182.71,0,0,0-24.49-1.61c-9.14,0-9.11.62-13.73.1-13.06-1.46-15.74-6.95-25.5-7.11-5.1-.09-13.92,1.26-16.51,6-3.73,6.76,5.09,21,7.59,24.52a7.25,7.25,0,0,1,1.69,4.9c-.24,2.28-2,3.55-2.85,4.56-3.46,4.08,1,11.64,2.85,14.68,3.83,6.43,9.56,11.92,26.75,23,15.82,10.21,32,20,47.63,30.44,0,0,23.79,15.87,26.78,13.46a7.43,7.43,0,0,0,1.18-1.93h0s-.43-2.26-.51-2.6c-.66-2.85-7.71-3.28-11.51-7.18-3.5-3.57-.75-6.47-5.31-11.08a18.7,18.7,0,0,0-3.92-3c-3.87-2.31-10-7.07-22.4-16.58-10.7-8.25-22.16-17.07-24.16-29.19-.48-2.9-1.4-9.12,3.29-14.49,6.05-6.92,16.79-7.08,17.78-7.08,14.51,0,28.36,11.37,26.84,16.73-.7,2.47-4.33,2-9,5.72-.41.32-8.28,6.66-7.71,15.41.74,11.26,15.19,22.14,24.12,21.24,5.54-.56,8.07-5.57,16-5.14,3.19.17,4.11,1.06,6.25.45,4.07-1.15,3.25-5.05,8.33-8.39,1.56-1,1.39-.49,6.28-2.65,5.18-2.29,6.19-3.25,10.13-5.13A81.7,81.7,0,0,1,3285.59,2862Z" transform="translate(-337.99 -338.11)"/><path class="cls-3" d="M3314.84,2929.91a71,71,0,0,1-15.37-2.58c-6.62-2-10.18-3-12.73-5.65-6-6.21,1.66-12.84-4.15-20.55-2.91-3.88-8.42-7-14.39-7.49a19.16,19.16,0,0,0-14.37,4.53c-6.12,5.79-3,13.72-2.39,15.24a21,21,0,0,0,6.32,8.29,92.4,92.4,0,0,0,32.48,14.79,73.87,73.87,0,0,0,14.87,2.3c18.84.86,34-6.43,33.27-8.15C3337.93,2929.52,3330.89,2931.23,3314.84,2929.91Z" transform="translate(-337.99 -338.11)"/><path class="cls-3" d="M3225.59,2887.79c-1.4,3.38-28.58,2.37-46.93-11.7-4.06-3.11-18-13.79-15.59-27.41,1.44-8.2,8.72-17,20.75-19,16.18-2.63,34.33,8.21,34.38,15.54.06,8.19-22.47,8.85-23.15,18C3194.22,2874.34,3227.2,2883.9,3225.59,2887.79Z" transform="translate(-337.99 -338.11)"/><path class="cls-3" d="M3124,2894.45" transform="translate(-337.99 -338.11)"/><path class="cls-3" d="M3544.41,2793.2c-3.95,2.62-13.43-6.35-33.29-2.71s-31.76,8.42-38.46,12.58-20.9,12.34-25.21,16.84-26.91,22.65-30.71,42.08c-47.71,6.69-99.33,81.77-29.25,67.92.48,2.46,2.07,5.41,3.65,8.36-8.7,5.23-32.26,8.68-40,21.56,11-.67,20.27-1.36,27.09-1.9,24.75-2,31.45-3.14,36.88-4.32a117.08,117.08,0,0,0,22.12-6.55,89.73,89.73,0,0,0,27.56-18c58.47-26.07,66.52-21.17,123.53-74.7,13.13-14.14,4.11-26.67,4.11-26.67C3614.35,2809.31,3622.16,2760,3544.41,2793.2Z" transform="translate(-337.99 -338.11)"/><path class="cls-3" d="M3351.13,2959.83c1.12,1.56,13.66-4.08,30.11-8.62a208.54,208.54,0,0,1,27.62-5.65c9.18-2.77,48.56.46,55.88-28.48,30.67-11.63,17.92-36.28-10.21-34.16a27.31,27.31,0,0,0-10.56-9.3,33,33,0,0,0-8.13-2.9c-8.47-1.76-16.12.39-20.35,1.62-15.24,4.45-23.89,14.12-27.48,18-4.89,5.25-12,13.52-10.56,23,.19,1.26,1.46,9.58,8.27,11.55,2,.58,4,.42,7.87.1,4.67-.38,8.31-.67,12.08-2.7A17.91,17.91,0,0,0,3413,2915a15,15,0,0,0,2-9.14,8.58,8.58,0,0,1,1.63-7.94c3.32-3.95,9.26-4.36,11.39-4.51,6.71-.46,13.56,2.34,16.65,6.66,4.45,6.21-.73,15.55-6.11,21.07-16.43,16.9-57.44,20.15-72.59,27.09a52.88,52.88,0,0,0-9.74,6.14C3353.69,2956.4,3350.51,2959,3351.13,2959.83Z" transform="translate(-337.99 -338.11)"/><path class="cls-3" d="M3422.72,2902.23" transform="translate(-337.99 -338.11)"/><path class="cls-3" d="M3420.13,2902.54" transform="translate(-337.99 -338.11)"/><path class="cls-3" d="M3416.74,2862a45.58,45.58,0,0,1,9.58,2.89c8.88,3.62,12.4,7.83,13.7,7.12,1.64-.91-4.09-7.5-5-14.26-1-7,2.85-17.44,23.66-32.48,4.71-3.4,18.24-13.61,36.93-16.54a182.71,182.71,0,0,1,24.49-1.61c9.14,0,9.11.62,13.73.1,13.07-1.46,15.74-6.95,25.5-7.11,5.11-.09,13.92,1.26,16.51,6,3.73,6.76-5.09,21-7.59,24.52a7.25,7.25,0,0,0-1.69,4.9c.24,2.28,2,3.55,2.85,4.56,3.46,4.08-1,11.64-2.85,14.68-3.83,6.43-9.56,11.92-26.75,23-15.82,10.21-32,20-47.63,30.44,0,0-23.79,15.87-26.77,13.46a7.55,7.55,0,0,1-1.19-1.93h0s.43-2.26.51-2.6c.66-2.85,7.71-3.28,11.52-7.18,3.49-3.57.75-6.47,5.3-11.08a18.44,18.44,0,0,1,3.93-3c3.87-2.31,10-7.07,22.39-16.58,10.71-8.25,22.16-17.07,24.17-29.19.48-2.9,1.39-9.12-3.3-14.49-6.05-6.92-16.79-7.08-17.78-7.08-14.51,0-28.36,11.37-26.84,16.73.7,2.47,4.34,2,9,5.72.4.32,8.28,6.66,7.7,15.41-.73,11.26-15.19,22.14-24.12,21.24-5.53-.56-8.07-5.57-16-5.14-3.19.17-4.11,1.06-6.25.45-4.07-1.15-3.25-5.05-8.33-8.39-1.56-1-1.39-.49-6.28-2.65-5.18-2.29-6.19-3.25-10.13-5.13A81.7,81.7,0,0,0,3416.74,2862Z" transform="translate(-337.99 -338.11)"/><path class="cls-3" d="M3387.49,2929.91a71,71,0,0,0,15.37-2.58c6.62-2,10.18-3,12.73-5.65,6-6.21-1.66-12.84,4.15-20.55,2.91-3.88,8.42-7,14.39-7.49a19.21,19.21,0,0,1,14.38,4.53c6.12,5.79,3,13.72,2.39,15.24a21.12,21.12,0,0,1-6.33,8.29,92.4,92.4,0,0,1-32.48,14.79,73.76,73.76,0,0,1-14.87,2.3c-18.84.86-34-6.43-33.27-8.15C3364.41,2929.52,3371.44,2931.23,3387.49,2929.91Z" transform="translate(-337.99 -338.11)"/><path class="cls-3" d="M3476.75,2887.79c1.39,3.38,28.58,2.37,46.93-11.7,4.05-3.11,18-13.79,15.58-27.41-1.44-8.2-8.72-17-20.75-19-16.18-2.63-34.33,8.21-34.38,15.54-.06,8.19,22.47,8.85,23.15,18C3508.11,2874.34,3475.14,2883.9,3476.75,2887.79Z" transform="translate(-337.99 -338.11)"/><path class="cls-3" d="M3578.34,2894.45" transform="translate(-337.99 -338.11)"/><polygon class="cls-3" points="2976.09 2578.1 3039.46 2575.23 3064.87 2589.23 3070.86 2607.46 3015.18 2621.17 3013.14 2621.72 2988.99 2611.35 2970.06 2602.24 2976.09 2578.1"/><path d="M1473.27,1848.24H1036c-18.29,0-33.12-1.73-33.12-3.86s14.83-3.85,33.12-3.85h437.25c18.3,0,33.13,1.72,33.13,3.85S1491.57,1848.24,1473.27,1848.24Z" transform="translate(-337.99 -338.11)"/><path d="M1510.77,1783.28h-397.5c-19.77,0-40,1-59.74-.78-2-.18-12.43-.22-13.13-3.07l.38,3.32.06-.23L981,1892.73l.17-.22-12.51,15a4.68,4.68,0,0,1,1.13-.65l-3.07,1.33c9.81-3.5,22-2.75,32.21-2.76h394c20.56,0,41.58-1,62.09.72,2,.16,13.13.21,13.86,3.13l-.39-3.31-.06.22L1528.26,1796l-.16.22,12.51-15a4.88,4.88,0,0,1-1.13.65l3.06-1.33c-9.66,3.45-21.7,2.73-31.77,2.76-5.21,0-14.19,14.47-15.57,16.38a481.88,481.88,0,0,0-28.42,44.83c-8.76,15.32-17.59,30.82-24.62,47-.83,1.91-9,21.69-6.39,21.68,9.26,0,18.83-.07,28-1.79a23.9,23.9,0,0,0,7.86-2.83c2.58-1.54,7.06-7.84,9.06-10.46,4.24-5.55,3.73-4.89,8.06-11.2a592.35,592.35,0,0,0,45.44-78.71l3.29-6.87a94.14,94.14,0,0,0,6.78-18.36c0-1.45,4.11,2.54-.33-3.54a2.76,2.76,0,0,0-.88-.89c-1.91-1.33-5.36-1.39-7.58-1.68a192.27,192.27,0,0,0-24.7-1.29h-373q-31.69,0-63.38,0c-9.55,0-19.42,0-28.84,1.79-2.72.52-5.76,1.27-8,2.94-8.41,6.3-15.59,19.24-21.28,27.83-16.58,25.06-32.45,51.7-44.43,79.3-2.22,5.13-6.62,12.74-6.77,18.36a13.55,13.55,0,0,0,.33,3.54,3.45,3.45,0,0,0,1.11,1c2,1.38,5.71,1.38,8,1.66,11,1.37,22,1.21,33.07,1.21h428.23c5.2,0,14.21-14.5,15.58-16.37a486.65,486.65,0,0,0,28.42-44.83c8.75-15.33,17.58-30.82,24.61-47C1505.21,1803.05,1513.35,1783.28,1510.77,1783.28Z" transform="translate(-337.99 -338.11)"/><path d="M2176.74,1848.24H1785.3c-16.38,0-29.65-1.73-29.65-3.86s13.27-3.85,29.65-3.85h391.44c16.38,0,29.66,1.72,29.66,3.85S2193.12,1848.24,2176.74,1848.24Z" transform="translate(-337.99 -338.11)"/><path d="M2214.24,1783.28H1858.47c-17.58,0-35.66.94-53.18-.74-2.07-.2-11.44-.29-12.14-3.11l.38,3.32.07-.26-59.81,110.22.18-.25-12.51,15a5.14,5.14,0,0,1,1.27-.72l-3.07,1.32c10.55-3.72,22.7-2.63,33.85-2.63h347.3c18.25,0,37-1,55.19.67,2.09.19,12.17.25,12.9,3.18l-.39-3.31-.06.25,59.81-110.22-.19.25,12.51-15a4.91,4.91,0,0,1-1.26.72l3.07-1.32c-8.66,3-19.13,2.6-28.15,2.63-5.21,0-14.18,14.47-15.57,16.38a481.88,481.88,0,0,0-28.42,44.83c-8.76,15.32-17.59,30.82-24.62,47-.82,1.91-9,21.69-6.39,21.68,8.26,0,16.85-.07,25-1.78a23.55,23.55,0,0,0,7.35-2.78c2.64-1.58,7-7.8,9.07-10.47,4.13-5.4,3.9-5.12,8.08-11.23a583,583,0,0,0,42.16-71.84c3.91-8,8.36-16.23,11.12-24.65.21-.63,2.21-7,2.26-7.57.1-1.25.23-3.09-.76-4.07-1.4-1.39-4.64-1.55-6.44-1.84a150,150,0,0,0-22.82-1.39h-334q-28.32,0-56.66,0c-8.52,0-17.38,0-25.77,1.78a19,19,0,0,0-7.5,2.9c-8.37,6.32-15.67,19.24-21.3,27.86a689.37,689.37,0,0,0-37.86,65.56,232.72,232.72,0,0,0-11.12,24.65l-2.23,7.44-.06.26c0,1.32,0,3.09.94,4.06,1.33,1.29,4.63,1.45,6.29,1.72,10.12,1.61,20.44,1.39,30.67,1.39h383.58c5.2,0,14.21-14.5,15.58-16.37a486.65,486.65,0,0,0,28.42-44.83c8.75-15.33,17.58-30.82,24.61-47C2208.68,1803.05,2216.82,1783.28,2214.24,1783.28Z" transform="translate(-337.99 -338.11)"/><path d="M3173.79,1848.67H2634.5c-22.56,0-40.85-1.92-40.85-4.29s18.29-4.29,40.85-4.29h539.29c22.57,0,40.86,1.92,40.86,4.29S3196.36,1848.67,3173.79,1848.67Z" transform="translate(-337.99 -338.11)"/><path d="M3211.29,1783.72H2720.75c-24.6,0-49.76,1.14-74.3-.94-2.1-.18-14.62-.24-15.3-3.35l.38,3.32,0-.21-51.21,97.66.14-.2-21.12,27.61a3.89,3.89,0,0,1,.9-.59l-3.06,1.33c7.51-3,17.2-2.71,25.14-3,5-.2,10-.28,15.05-.28h486.14c25.47,0,51.43-1.14,76.86.83,2.35.18,16,.16,16.73,3.46l-.39-3.31,0,.2,51.2-97.66-.13.2,21.11-27.61a3.69,3.69,0,0,1-.9.59l3.07-1.33c-4.36,1.77-9.6,2-14.23,2.37-8.49.72-17,.92-25.55.94-5.2,0-14.19,14.48-15.57,16.37a484.53,484.53,0,0,0-28.42,44.83c-8.76,15.33-17.59,30.82-24.62,47-.83,1.91-9,21.68-6.39,21.68,11.29,0,22.83-.13,34-1.92a25.45,25.45,0,0,0,9.37-3c1.86-1.13,10.69-11.69,5.7-5.94,5-5.73,12-16.23,15.91-22.16,7-10.52,13.46-21.37,19.82-32.27,10.69-18.32,22.21-37.78,29.16-57.94,1.11-3.2,4.75-10.47-.2-12.32-3.63-1.35-8-1.52-11.84-1.87-9-.83-18-1-27-1.06-6.42,0-12.85,0-19.27,0H2750.89q-38.91,0-77.82,0c-11.8,0-23.88,0-35.55,2a24.48,24.48,0,0,0-9,3c-3.15,2-11.51,13.54-12.73,15.25-2.82,3.94-6.05,8.74-8.74,12.76-10.7,16-20.42,32.75-29.55,49.67-6.92,12.81-14.64,26.67-19.43,40.54-1.48,4.29-4.88,10.78.82,12.5a57.38,57.38,0,0,0,11.23,1.69c12.85,1.19,25.76,1.07,38.65,1.07h527.56c5.2,0,14.21-14.5,15.58-16.38a484,484,0,0,0,28.42-44.83c8.75-15.32,17.58-30.82,24.61-47C3205.73,1803.49,3213.87,1783.72,3211.29,1783.72Z" transform="translate(-337.99 -338.11)"/><path d="M4038.33,1848.94H3559c-20.05,0-36.31,1.54-36.31,3.44s16.26,3.44,36.31,3.44h479.37c20.06,0,36.32-1.54,36.32-3.44S4058.39,1848.94,4038.33,1848.94Z" transform="translate(-337.99 -338.11)"/><path d="M4075.83,1784h-478a266,266,0,0,0-28.23,1.13,40.59,40.59,0,0,0-8.19,1.42c-3.73,1.2-4.08,1.85-6.75,4.67-4.6,4.88-4.47,4.69-10,12.41-10.29,14.39-19.58,29.52-28.42,44.83q-9.45,16.38-18,33.29c-4.61,9.11-9.3,18.56-12.24,28.37-.47,1.59-2.34,5.86-.57,7.59,1.35,1.32,4.66,1.37,6.38,1.61,12.85,1.77,25.91,1.46,38.86,1.46h470.22a253.17,253.17,0,0,0,27.54-1.19,38.14,38.14,0,0,0,7.58-1.36c4.79-1.54,5.69-3.07,9.42-7.5,13.92-16.57,24.87-35.77,35.74-54.41,8.86-15.18,17.61-30.87,24.62-47,2.22-5.12,6.64-12.76,6.77-18.36,0-1.07.12-3.1-.66-4-1.14-1.26-4.75-1.32-6.26-1.53-9.81-1.35-19.84-1.44-29.73-1.46-5.19,0-14.22,14.51-15.58,16.37a485.21,485.21,0,0,0-28.41,44.83c-8.76,15.32-17.59,30.82-24.62,47-.83,1.92-9,21.67-6.39,21.68,8.56,0,17.15.19,25.67,1,1.65.16,10,.18,10.65,2.43l-.39-3.31-.05.18,67-119.61q8.28-7.1,4.6-5.12l3.06-1.33c-6.29,2.5-14.34,2.17-21,2.44-5,.21-9.93.29-14.89.29h-432c-22.53,0-45.38.89-67.88-.62-2.16-.15-14.66.07-15.45-2.82l.38,3.32,0-.19-67,119.61q-8.29,7.1-4.6,5.12l-3.07,1.33c6-2.4,13.79-2.12,20.15-2.41,5.22-.23,10.44-.31,15.66-.32h458.05c6.62,0,13.56.61,20.16,0a8.61,8.61,0,0,1,.88,0c5.2,0,14.21-14.49,15.58-16.37,10.35-14.2,19.71-29.6,28.42-44.83s17.58-30.82,24.61-47C4070.27,1803.75,4078.41,1784,4075.83,1784Z" transform="translate(-337.99 -338.11)"/><path class="cls-4" d="M3287.6,2895.42c-8.26,6,36.87,51.44,38.05,119,1.35,76.83-55.21,115.08-35.18,155.47,6.84,13.8,23.47,29.57,67.1,36.82q7.16-118,14.32-236.06h0C3311.85,2904.79,3292.46,2891.85,3287.6,2895.42Z" transform="translate(-337.99 -338.11)"/><path class="cls-4" d="M3432.64,2895.42c8.26,6-36.86,51.44-38,119-1.35,76.83,55.21,115.08,35.19,155.47-6.84,13.8-23.47,29.57-67.1,36.82q-7.16-118-14.32-236.06h0C3408.39,2904.79,3427.78,2891.85,3432.64,2895.42Z" transform="translate(-337.99 -338.11)"/><path class="cls-1" d="M2499.65,439.51C1361.8,439.51,439.4,1361.92,439.4,2499.76S1361.8,4560,2499.65,4560,4559.9,3637.61,4559.9,2499.76,3637.49,439.51,2499.65,439.51Zm0,3687c-898.43,0-1626.75-728.32-1626.75-1626.75S1601.22,873,2499.65,873,4126.4,1601.34,4126.4,2499.76,3398.08,4126.51,2499.65,4126.51Z" transform="translate(-337.99 -338.11)"/><text class="cls-5" transform="translate(413.89 1883.88) rotate(-76.97)">电</text><text class="cls-5" transform="matrix(0.42, -0.91, 0.91, 0.42, 508.29, 1529.97)">子</text><text class="cls-5" transform="translate(674.02 1203.27) rotate(-53.11)">封</text><text class="cls-5" transform="translate(903.45 917.6) rotate(-41.3)">装</text><text class="cls-5" transform="translate(1186.49 684.97) rotate(-29.44)">材</text><text class="cls-5" transform="translate(1511.23 515.57) rotate(-17.5)">料</text><text class="cls-5" transform="matrix(1, -0.1, 0.1, 1, 1864.09, 417.16)">与</text><text class="cls-5" transform="matrix(1, 0.1, -0.1, 1, 2230.18, 393.86)">薄</text><text class="cls-5" transform="translate(2594.16 440.11) rotate(16.68)">膜</text><text class="cls-5" transform="translate(2941.54 556.41) rotate(28.59)">技</text><text class="cls-5" transform="matrix(0.75, 0.66, -0.66, 0.75, 3256.68, 742.36)">术</text><text class="cls-5" transform="translate(3523.38 992.52) rotate(53.97)">研</text><text class="cls-5" transform="matrix(0.4, 0.92, -0.92, 0.4, 3727.83, 1295.85)">究</text><text class="cls-5" transform="translate(3861.73 1636.86) rotate(78.41)">所</text><text class="cls-6" transform="translate(295.36 2171.57) rotate(88.8)">I</text><text class="cls-6" transform="matrix(0.07, 1, -1, 0.07, 296.81, 2247.76)">n</text><text class="cls-6" transform="translate(304.65 2353.1) rotate(83.26)">s</text><text class="cls-6" transform="matrix(0.15, 0.99, -0.99, 0.15, 313.57, 2426.83)">t</text><text class="cls-6" transform="matrix(0.19, 0.98, -0.98, 0.19, 323.56, 2489.75)">i</text><text class="cls-6" transform="translate(333.6 2542.93) rotate(77.5)">t</text><text class="cls-6" transform="matrix(0.26, 0.97, -0.97, 0.26, 347.7, 2607.74)">u</text><text class="cls-6" transform="translate(375.83 2709.15) rotate(72.19)">t</text><text class="cls-6" transform="matrix(0.34, 0.94, -0.94, 0.34, 395.74, 2771.3)">e</text><text class="cls-6" transform="matrix(0.38, 0.93, -0.93, 0.38, 424.89, 2849.65)"> </text><text class="cls-6" transform="translate(443.76 2896.7) rotate(65.57)">o</text><text class="cls-6" transform="translate(483.55 2983.12) rotate(63.09)">f</text><text class="cls-6" transform="translate(512.43 3039.61) rotate(61.36)"> </text><text class="cls-6" transform="translate(536.84 3085.69) rotate(58.64)">E</text><text class="cls-6" transform="translate(602.67 3191.74) rotate(55.85)">l</text><text class="cls-6" transform="translate(633.48 3237.41) rotate(53.73)">e</text><text class="cls-6" transform="matrix(0.63, 0.78, -0.78, 0.63, 684.09, 3306.07)">c</text><text class="cls-6" transform="matrix(0.66, 0.75, -0.75, 0.66, 737.26, 3371.49)">t</text><text class="cls-6" transform="matrix(0.69, 0.73, -0.73, 0.69, 780.11, 3420.57)">r</text><text class="cls-6" transform="translate(839.18 3482.82) rotate(43.78)">o</text><text class="cls-6" transform="translate(909.38 3549.91) rotate(40.67)">n</text><text class="cls-6" transform="matrix(0.79, 0.62, -0.62, 0.79, 989.19, 3617.58)">i</text><text class="cls-6" transform="matrix(0.81, 0.59, -0.59, 0.81, 1032.39, 3651.78)">c</text><text class="cls-6" transform="matrix(0.83, 0.56, -0.56, 0.83, 1100.16, 3700.67)"> </text><text class="cls-6" transform="translate(1142.64 3730) rotate(31.5)">P</text><text class="cls-6" transform="translate(1242.55 3790.54) rotate(28.2)">a</text><text class="cls-6" transform="translate(1327.44 3835.68) rotate(25.39)">c</text><text class="cls-6" transform="matrix(0.92, 0.38, -0.38, 0.92, 1405.51, 3872.76)">k</text><text class="cls-6" transform="matrix(0.94, 0.33, -0.33, 0.94, 1504.4, 3913.14)">a</text><text class="cls-6" transform="translate(1595.79 3944.83) rotate(16.28)">g</text><text class="cls-6" transform="translate(1686.82 3970.84) rotate(13.95)">i</text><text class="cls-6" transform="translate(1741.29 3984.74) rotate(11.47)">n</text><text class="cls-6" transform="translate(1846 4005.58) rotate(8.32)">g</text><text class="cls-6" transform="translate(1939.46 4018.68) rotate(6.1)"> </text><text class="cls-6" transform="translate(1993.63 4026) rotate(2.59)">M</text><text class="cls-6" transform="translate(2170.13 4032.14) rotate(-1.58)">a</text><text class="cls-6" transform="matrix(1, -0.07, 0.07, 1, 2265.12, 4029.06)">t</text><text class="cls-6" transform="translate(2330.1 4024.55) rotate(-6.3)">e</text><text class="cls-6" transform="translate(2414.92 4015.01) rotate(-8.92)">r</text><text class="cls-6" transform="translate(2497.66 4001.63) rotate(-11.06)">i</text><text class="cls-6" transform="matrix(0.97, -0.23, 0.23, 0.97, 2552.39, 3991.19)">a</text><text class="cls-6" transform="translate(2644.36 3968.76) rotate(-15.7)">l</text><text class="cls-6" transform="translate(2697.01 3954.02) rotate(-17.69)">s</text><text class="cls-6" transform="translate(2766.99 3931.39) rotate(-19.6)"> </text><text class="cls-6" transform="matrix(0.93, -0.37, 0.37, 0.93, 2814.83, 3914.67)">a</text><text class="cls-6" transform="translate(2905.04 3878.37) rotate(-24.99)">n</text><text class="cls-6" transform="translate(3002.15 3832.78) rotate(-28.29)">d</text><text class="cls-6" transform="matrix(0.86, -0.51, 0.51, 0.86, 3093.77, 3782.66)"> </text><text class="cls-6" transform="matrix(0.83, -0.55, 0.55, 0.83, 3138.96, 3756.61)">T</text><text class="cls-6" transform="translate(3244.91 3685.98) rotate(-37)">h</text><text class="cls-6" transform="matrix(0.77, -0.64, 0.64, 0.77, 3328.09, 3622.44)">i</text><text class="cls-6" transform="translate(3371.62 3587.07) rotate(-41.91)">n</text><text class="cls-6" transform="translate(3448.84 3516.81) rotate(-44.29)"> </text><text class="cls-6" transform="matrix(0.68, -0.73, 0.73, 0.68, 3486.13, 3481.16)">F</text><text class="cls-6" transform="matrix(0.65, -0.76, 0.76, 0.65, 3564.01, 3396.93)">i</text><text class="cls-6" transform="translate(3598.79 3356.19) rotate(-51.07)">l</text><text class="cls-6" transform="matrix(0.58, -0.81, 0.81, 0.58, 3636.52, 3311.22)">m</text><text class="cls-6" transform="translate(3726.58 3182.95) rotate(-57.96)">s</text><text class="cls-6" transform="translate(3765.33 3120.47) rotate(-59.85)"> </text><text class="cls-6" transform="translate(3792.1 3075.7) rotate(-62.57)">T</text><text class="cls-6" transform="translate(3849.56 2963.14) rotate(-65.87)">e</text><text class="cls-6" transform="translate(3884.29 2885.16) rotate(-68.5)">c</text><text class="cls-6" transform="translate(3916 2804.71) rotate(-71.48)">h</text><text class="cls-6" transform="matrix(0.26, -0.97, 0.97, 0.26, 3949.81, 2702.86)">n</text><text class="cls-6" transform="translate(3977.42 2599.68) rotate(-77.95)">o</text><text class="cls-6" transform="translate(3996.65 2507.01) rotate(-80.27)">l</text><text class="cls-6" transform="translate(4006.3 2452.18) rotate(-82.58)">o</text><text class="cls-6" transform="translate(4018.54 2356.32) rotate(-85.54)">g</text><text class="cls-6" transform="matrix(0.03, -1, 1, 0.03, 4025.81, 2260.06)">y</text><path class="cls-7" d="M2488.57,1874.39" transform="translate(-337.99 -338.11)"/><path class="cls-8" d="M3601.24,1810.06" transform="translate(-337.99 -338.11)"/><circle class="cls-9" cx="2161.66" cy="2161.66" r="2136.66"/></svg>